<svg xmlns="http://www.w3.org/2000/svg" xmlns:xlink="http://www.w3.org/1999/xlink" version="1.1" x="0px" y="0px" viewBox="0 0 100 125" enable-background="new 0 0 100 100" xml:space="preserve"><path d="M50,5.227c-24.813,0-45,20.188-45,45.001c0,24.813,20.187,45.001,45,45.001c24.813,0,45-20.188,45-45.001  C95,25.415,74.813,5.227,50,5.227z M50,93.974c-24.121,0-43.745-19.623-43.745-43.745S25.879,6.482,50,6.482  c24.121,0,43.744,19.625,43.744,43.747S74.121,93.974,50,93.974z M50,40.197c-5.53,0-10.031,4.5-10.031,10.031  s4.5,10.03,10.031,10.03c5.53,0,10.03-4.499,10.03-10.03S55.53,40.197,50,40.197z M50,59.16c-4.926,0-8.934-4.007-8.934-8.932  c0-4.926,4.008-8.934,8.934-8.934c4.926,0,8.933,4.008,8.933,8.934C58.934,55.153,54.927,59.16,50,59.16z M50,46.301  c-2.165,0-3.927,1.761-3.927,3.927c0,2.165,1.762,3.927,3.927,3.927c2.166,0,3.926-1.762,3.926-3.927  C53.927,48.062,52.166,46.301,50,46.301z M50,52.945c-1.499,0-2.718-1.22-2.718-2.718c0-1.499,1.22-2.719,2.718-2.719  s2.718,1.22,2.718,2.719C52.719,51.726,51.499,52.945,50,52.945z M63.503,38.608c0-2.44-1.985-4.424-4.426-4.424  c-2.313,0-4.245,1.816-4.397,4.136l-0.027,0.42l0.384,0.171c1.837,0.819,3.467,2.093,4.712,3.683l0.258,0.328l0.399-0.125  C62.259,42.216,63.503,40.533,63.503,38.608z M60.419,41.501c-1.23-1.467-2.767-2.667-4.481-3.503  c0.287-1.49,1.598-2.606,3.142-2.606c1.773,0,3.216,1.443,3.216,3.216C62.295,39.868,61.555,40.986,60.419,41.501z M37.719,51.945  l-0.044-0.419c-0.045-0.427-0.069-0.86-0.069-1.298c0-1.587,0.304-3.146,0.904-4.632l0.157-0.388l-0.309-0.283  c-1.39-1.273-3.542-1.524-5.171-0.583c-1.024,0.591-1.757,1.545-2.062,2.687c-0.306,1.142-0.149,2.334,0.442,3.357  c0.784,1.357,2.247,2.199,3.817,2.199c0.683,0,1.34-0.152,1.956-0.454L37.719,51.945z M36.434,51.203  c-1.407,0.479-3.074-0.126-3.821-1.421c-0.429-0.744-0.544-1.61-0.321-2.44c0.222-0.831,0.755-1.524,1.5-1.954  c0.48-0.278,1.025-0.425,1.574-0.425c0.67,0,1.319,0.21,1.863,0.599c-0.551,1.503-0.831,3.071-0.831,4.666  C36.398,50.556,36.411,50.881,36.434,51.203z M42.035,40.224l0.35,0.234l0.341-0.248c1.627-1.184,3.542-1.959,5.537-2.24  l0.415-0.059l0.092-0.407c0.425-1.896-0.411-3.818-2.079-4.781c-0.672-0.388-1.438-0.594-2.21-0.594  c-1.577,0-3.047,0.848-3.835,2.214C39.486,36.351,40.097,38.934,42.035,40.224z M41.691,34.947c0.573-0.993,1.641-1.61,2.789-1.61  c0.561,0,1.116,0.15,1.606,0.433c1.093,0.631,1.69,1.831,1.568,3.074c-1.883,0.329-3.689,1.06-5.271,2.131  C41.231,37.981,40.918,36.287,41.691,34.947z M40.249,57.859l-0.259-0.328l-0.398,0.126c-1.852,0.581-3.095,2.265-3.095,4.188  c0,2.439,1.984,4.425,4.424,4.425c2.313,0,4.245-1.815,4.398-4.135l0.027-0.42l-0.385-0.172  C43.127,60.726,41.498,59.452,40.249,57.859z M40.921,65.062c-1.773,0-3.216-1.442-3.216-3.216c0-1.259,0.738-2.377,1.874-2.893  c1.233,1.469,2.769,2.668,4.483,3.503C43.774,63.946,42.465,65.062,40.921,65.062z M64.616,47.868c-0.683,0-1.341,0.153-1.957,0.455  l-0.378,0.186l0.044,0.419c0.044,0.427,0.069,0.861,0.069,1.301c0,1.586-0.304,3.144-0.903,4.627l-0.156,0.39l0.309,0.282  c0.823,0.754,1.885,1.169,2.991,1.169c0.761,0,1.515-0.202,2.18-0.585c1.024-0.591,1.757-1.545,2.062-2.687s0.147-2.334-0.442-3.357  C67.65,48.711,66.188,47.868,64.616,47.868z M67.71,53.112c-0.224,0.83-0.756,1.523-1.501,1.952  c-0.48,0.277-1.024,0.425-1.573,0.425c-0.001,0-0.001,0-0.001,0c-0.669,0-1.317-0.21-1.862-0.6c0.552-1.502,0.83-3.068,0.83-4.662  c0-0.329-0.014-0.654-0.036-0.977c1.408-0.489,3.074,0.126,3.822,1.419C67.818,51.416,67.931,52.283,67.71,53.112z M57.967,60.23  l-0.35-0.233l-0.34,0.248c-1.63,1.185-3.547,1.96-5.54,2.238l-0.415,0.059l-0.091,0.41c-0.423,1.896,0.413,3.815,2.08,4.778  c0.672,0.389,1.436,0.595,2.209,0.595c0.001,0,0.001,0,0.001,0c1.576,0,3.047-0.849,3.833-2.214  C60.515,64.104,59.904,61.521,57.967,60.23z M58.31,65.507c-0.853,1.478-2.9,2.037-4.394,1.178c-1.093-0.63-1.691-1.83-1.568-3.074  c1.882-0.329,3.688-1.058,5.271-2.13C58.769,62.474,59.083,64.168,58.31,65.507z M86.903,33.03  c-3.07-5.322-9.881-7.146-15.205-4.072c-0.859,0.496-1.617,1.098-2.289,1.767c-1.543-1.536-3.278-2.873-5.147-4.009  c0.974-1.755,1.532-3.771,1.532-5.916c0-6.745-5.488-12.232-12.238-12.232c-6.743,0-12.229,5.487-12.229,12.232  c0,1.1,0.159,2.161,0.433,3.176c-2.101,0.661-4.101,1.554-5.953,2.672c-0.938-1.548-2.268-2.889-3.946-3.858  c-5.324-3.074-12.129-1.249-15.204,4.076c-3.075,5.321-1.25,12.129,4.074,15.203c0.856,0.494,1.752,0.849,2.663,1.096  c-0.6,2.255-0.923,4.622-0.923,7.063c0,0.168,0.01,0.333,0.013,0.5c-1.81,0.04-3.635,0.52-5.313,1.489  c-5.325,3.073-7.146,9.88-4.072,15.206c3.07,5.323,9.879,7.146,15.203,4.072c0.859-0.496,1.617-1.098,2.289-1.767  c1.801,1.793,3.85,3.336,6.087,4.578c-0.87,1.587-1.367,3.408-1.367,5.346c-0.001,6.148,4.982,11.13,11.132,11.13  C52.587,90.786,57.57,85.8,57.57,79.652c0-0.988-0.141-1.94-0.383-2.853c2.492-0.675,4.847-1.688,7.006-2.992  c0.939,1.547,2.269,2.887,3.946,3.855c5.323,3.075,12.13,1.248,15.204-4.076c3.075-5.32,1.248-12.13-4.075-15.203  c-0.855-0.494-1.75-0.848-2.66-1.095c0.599-2.255,0.922-4.62,0.922-7.061c0-0.169-0.01-0.335-0.013-0.503  c1.81-0.04,3.635-0.52,5.313-1.489C88.155,45.162,89.978,38.355,86.903,33.03z M53.56,9.776c6.079,0,11.027,4.945,11.027,11.024  c0,6.08-4.947,11.026-11.025,11.027c-6.08,0-11.027-4.947-11.027-11.027C42.535,14.722,47.479,9.776,53.56,9.776z M76.021,57.139  c-4.59-0.979-9.48,1.031-11.958,5.317c-1.997,3.46-1.915,7.541-0.16,10.821c-2.119,1.283-4.432,2.278-6.879,2.94  c-1.447-4.465-5.634-7.695-10.585-7.696c-3.994,0.001-7.485,2.11-9.449,5.271c-2.199-1.219-4.211-2.733-5.979-4.495  c3.137-3.485,3.839-8.721,1.365-13.006c-1.997-3.458-5.57-5.428-9.288-5.549c-0.003-0.172-0.013-0.341-0.013-0.514  c0-2.39,0.317-4.707,0.904-6.914c4.591,0.98,9.482-1.031,11.958-5.319c1.996-3.458,1.915-7.537,0.161-10.817  c1.812-1.097,3.77-1.971,5.826-2.619c1.59,4.912,6.203,8.476,11.638,8.477c4.385,0,8.227-2.328,10.387-5.805  c1.831,1.113,3.529,2.422,5.04,3.927c-3.135,3.486-3.837,8.721-1.365,13.005c1.997,3.458,5.57,5.428,9.289,5.549  c0.003,0.172,0.013,0.343,0.013,0.517C76.925,52.617,76.608,54.933,76.021,57.139z M58.97,16.099  c-0.172,0.094-0.221,0.312-0.127,0.483c0.096,0.176,0.236,0.211,0.396,0.186l0.472-0.088l0.651,1.197l-0.335,0.35  c-0.108,0.12-0.155,0.251-0.054,0.437c0.087,0.159,0.279,0.234,0.446,0.142c0.031-0.016,0.089-0.053,0.141-0.12l1.886-2.121  c0.167-0.186,0.231-0.426,0.105-0.654c-0.119-0.221-0.365-0.305-0.607-0.268l-2.816,0.41C59.101,16.051,59.039,16.062,58.97,16.099z   M61.878,16.271l0.004,0.008l-1.031,1.081l-0.444-0.819L61.878,16.271z M55.266,13.723l0.019-0.035  c0.007-0.013,0.014-0.025,0.026-0.036l1.738-2.159c0.108-0.141,0.383-0.217,0.604-0.092c0.219,0.122,0.294,0.367,0.253,0.547  l-0.447,1.973l0.008,0.006l1.455-1.407c0.135-0.127,0.383-0.189,0.602-0.066c0.222,0.125,0.298,0.397,0.233,0.564l-0.946,2.605  c-0.002,0.016-0.009,0.028-0.017,0.04l-0.02,0.035c-0.107,0.188-0.311,0.23-0.48,0.134c-0.217-0.122-0.248-0.268-0.165-0.486  l0.728-1.879l-0.01-0.004l-1.519,1.499c-0.093,0.083-0.251,0.185-0.48,0.055c-0.231-0.13-0.227-0.319-0.202-0.44l0.495-2.077  l-0.008-0.004l-1.232,1.594c-0.141,0.184-0.283,0.234-0.5,0.112C55.228,14.106,55.159,13.911,55.266,13.723z M59.789,28.544  c0.126,0.216,0.058,0.41-0.125,0.517c-0.182,0.106-0.385,0.07-0.512-0.146l-0.862-1.479c-0.227-0.39-0.651-0.555-1.059-0.318  c-0.385,0.225-0.46,0.704-0.242,1.077l0.862,1.479c0.125,0.216,0.058,0.409-0.125,0.516c-0.182,0.107-0.385,0.071-0.512-0.145  l-0.881-1.513c-0.415-0.713-0.144-1.592,0.558-1.999c0.706-0.413,1.594-0.226,2.015,0.499L59.789,28.544z M62.94,24.981  c-0.049,0.081-0.183,0.177-0.297,0.186l-2.577,0.297l-0.006,0.008l1.604,0.936c0.215,0.126,0.25,0.329,0.144,0.512  c-0.106,0.181-0.299,0.25-0.516,0.125l-2.408-1.405c-0.217-0.127-0.252-0.33-0.146-0.511c0.048-0.082,0.179-0.169,0.297-0.187  l2.557-0.31l0.005-0.008l-1.581-0.923c-0.218-0.127-0.253-0.328-0.146-0.51c0.107-0.183,0.3-0.252,0.517-0.125l2.409,1.404  C63.012,24.597,63.047,24.798,62.94,24.981z M55.229,27.905l-0.001,0.04c-0.001,0.014-0.001,0.028-0.008,0.043l-0.6,2.711  c-0.033,0.176-0.246,0.366-0.5,0.352c-0.25-0.014-0.428-0.199-0.473-0.378l-0.475-1.972l-0.012,0l-0.679,1.91  c-0.063,0.174-0.26,0.341-0.51,0.327c-0.255-0.015-0.445-0.226-0.46-0.403l-0.312-2.759c-0.004-0.015-0.004-0.03-0.003-0.044  l0.001-0.04c0.012-0.216,0.176-0.344,0.372-0.334c0.25,0.013,0.342,0.132,0.364,0.364l0.184,2.01l0.01,0l0.697-2.023  c0.045-0.115,0.142-0.278,0.407-0.263c0.264,0.013,0.346,0.185,0.377,0.305l0.48,2.084l0.011,0l0.393-1.979  c0.047-0.229,0.15-0.336,0.401-0.323C55.093,27.544,55.241,27.689,55.229,27.905z M62.006,19.212c1.027,0.005,1.805,0.698,1.799,1.7  c-0.005,0.746-0.355,1.349-0.699,1.348c-0.213,0-0.344-0.135-0.344-0.307c0.003-0.334,0.361-0.401,0.365-1.044  c0.003-0.609-0.531-0.927-1.125-0.929c-0.601-0.003-1.132,0.292-1.135,0.917c-0.002,0.389,0.206,0.837,0.772,0.84l0.001-0.501  c0.002-0.201,0.145-0.343,0.347-0.342c0.211,0.001,0.334,0.154,0.331,0.347l-0.003,0.834c-0.001,0.314-0.159,0.432-0.476,0.429  c-0.946-0.005-1.656-0.628-1.651-1.61C60.195,19.891,60.988,19.207,62.006,19.212z M44.273,16.515  c0.302-0.637,0.911-0.724,1.257-0.561c0.284,0.134,0.468,0.362,0.506,0.683c0.297-0.25,0.694-0.333,1.048-0.167  c0.531,0.252,0.747,0.955,0.452,1.579c-0.309,0.656-0.985,0.835-1.334,0.67c-0.174-0.082-0.213-0.322-0.137-0.482  c0.143-0.301,0.628,0.015,0.864-0.486c0.11-0.23,0.02-0.5-0.214-0.611c-0.621-0.291-0.52,0.676-1.042,0.43  c-0.466-0.219,0.146-0.701-0.346-0.933c-0.172-0.081-0.353-0.021-0.447,0.179c-0.2,0.421,0.265,0.564,0.12,0.87  c-0.086,0.181-0.299,0.21-0.463,0.133C44.195,17.658,44.041,17.007,44.273,16.515z M46.981,22.057  c-0.016-0.21-0.159-0.357-0.409-0.338l-0.8,0.059l-0.04-0.542c-0.049-0.664-0.535-1.189-1.249-1.135  c-0.703,0.051-1.127,0.618-1.076,1.336l0.065,0.865c0.018,0.249,0.179,0.369,0.409,0.354l2.746-0.204  C46.876,22.433,46.997,22.267,46.981,22.057z M44.09,21.902l-0.036-0.499c-0.022-0.312,0.188-0.519,0.481-0.542  c0.292-0.021,0.531,0.153,0.554,0.465l0.037,0.499L44.09,21.902z M46.61,28.275c0.17,0.184,0.364,0.177,0.538,0.018l2.025-1.87  c0.184-0.17,0.174-0.375,0.032-0.531c-0.143-0.155-0.348-0.18-0.532-0.011l-0.781,0.723l-0.007-0.007l0.23-1.695  c0.016-0.121-0.035-0.228-0.099-0.296c-0.146-0.159-0.386-0.145-0.526-0.014c-0.055,0.049-0.086,0.125-0.094,0.219l-0.089,1.218  c-0.397-0.314-0.9-0.404-1.296-0.037c-0.565,0.522-0.502,1.091,0.014,1.65L46.61,28.275z M46.528,26.554  c0.202-0.186,0.445-0.164,0.63,0.039l0.344,0.371l-0.638,0.589l-0.343-0.371C46.333,26.98,46.323,26.744,46.528,26.554z   M47.489,23.441c0.083,0.194-0.006,0.42-0.201,0.504c-0.193,0.084-0.42-0.006-0.504-0.201c-0.083-0.194,0.007-0.42,0.201-0.504  C47.179,23.157,47.405,23.247,47.489,23.441z M49.88,11.592c-0.045-0.167,0.004-0.351,0.265-0.419l1.72-0.45  c0.243-0.064,0.398,0.124,0.432,0.252c0.025,0.096-0.001,0.209-0.026,0.343l-0.554,2.704c-0.058,0.298-0.1,0.412-0.304,0.465  c-0.266,0.069-0.447-0.097-0.482-0.234c-0.016-0.057-0.011-0.098,0.003-0.178l0.6-2.563l-1.216,0.319  C50.064,11.895,49.921,11.754,49.88,11.592z M48.45,20.8c0,2.817,2.293,5.11,5.111,5.11c2.817,0,5.109-2.293,5.109-5.11  c0-2.818-2.293-5.11-5.111-5.11S48.45,17.982,48.45,20.8z M53.561,16.898c2.15,0,3.901,1.75,3.901,3.901  c0,2.151-1.75,3.902-3.9,3.902c-2.152,0-3.903-1.751-3.903-3.902c0-1.042,0.406-2.022,1.143-2.759  C51.538,17.304,52.518,16.898,53.561,16.898z M46.764,13.817c-0.21-0.318-0.178-0.458,0-0.604l0.916-0.75  c0.178-0.147,0.361-0.125,0.473,0.012c0.215,0.262,0.036,0.446-0.032,0.503l-0.714,0.585l0.272,0.449  c0.076-0.093,0.16-0.194,0.255-0.271c0.454-0.374,1.086-0.276,1.449,0.164c0.521,0.634,0.514,1.338-0.143,1.877  c-0.271,0.221-0.979,0.511-1.254,0.177c-0.114-0.141-0.093-0.355,0.047-0.47c0.151-0.125,0.533-0.031,0.787-0.24  c0.267-0.219,0.191-0.589-0.005-0.829c-0.187-0.227-0.44-0.28-0.679-0.083c-0.22,0.181-0.156,0.337-0.345,0.493  c-0.152,0.124-0.319,0.07-0.372,0.006c-0.04-0.05-0.062-0.095-0.093-0.14L46.764,13.817z"/><text x="0" y="115" fill="#000000" font-size="5px" font-weight="bold" font-family="'Helvetica Neue', Helvetica, Arial-Unicode, Arial, Sans-serif">Created by George Tsatalios</text><text x="0" y="120" fill="#000000" font-size="5px" font-weight="bold" font-family="'Helvetica Neue', Helvetica, Arial-Unicode, Arial, Sans-serif">from the Noun Project</text></svg>